<?xml version="1.0" standalone="no"?>
<!DOCTYPE svg PUBLIC "-//W3C//DTD SVG 20010904//EN"
 "http://www.w3.org/TR/2001/REC-SVG-20010904/DTD/svg10.dtd">
<svg version="1.0" xmlns="http://www.w3.org/2000/svg"
 width="425.000000pt" height="425.000000pt" viewBox="0 0 425.000000 425.000000"
 preserveAspectRatio="xMidYMid meet">
<metadata>
Created by potrace 1.14, written by Peter Selinger 2001-2017
</metadata>
<g transform="translate(0.000000,425.000000) scale(0.100000,-0.100000)"
fill="#000000" stroke="none">
<path d="M1866 4159 c-468 -60 -882 -270 -1218 -617 -238 -246 -403 -528 -493
-843 -176 -611 -71 -1237 295 -1762 76 -108 303 -345 410 -427 294 -225 622
-364 980 -416 176 -25 522 -15 685 20 699 149 1251 615 1510 1275 20 52 52
154 70 225 146 571 44 1157 -287 1656 -93 141 -302 365 -443 475 -272 213
-623 361 -974 409 -122 17 -417 20 -535 5z m544 -104 c454 -73 855 -289 1161
-627 43 -46 88 -100 100 -119 13 -19 36 -50 50 -69 48 -63 146 -243 192 -351
56 -130 89 -238 123 -395 35 -164 44 -455 20 -624 -96 -657 -480 -1196 -1056
-1485 -187 -93 -357 -149 -565 -185 -169 -29 -461 -30 -626 -1 -409 73 -770
256 -1052 535 -208 206 -335 394 -441 652 -105 256 -140 439 -141 734 0 230 7
287 55 476 179 699 712 1235 1413 1420 151 40 259 52 467 53 139 1 236 -4 300
-14z"/>
<path d="M1907 3802 c-35 -4 -60 -42 -89 -137 -11 -38 -34 -104 -49 -145 -15
-41 -49 -133 -74 -205 -26 -71 -83 -227 -127 -345 -91 -244 -89 -238 -237
-645 -244 -666 -412 -1121 -421 -1140 -24 -48 -90 -240 -90 -260 0 -49 -12
-48 663 -42 348 4 876 7 1174 7 l543 0 28 27 c21 20 43 66 75 158 25 72 83
233 128 358 89 248 91 269 32 283 -15 4 -321 4 -680 1 -359 -4 -653 -3 -653 1
0 4 13 43 29 87 15 44 31 87 33 95 40 116 230 648 384 1072 107 295 215 596
239 668 43 125 45 134 29 151 -16 18 -39 19 -463 16 -245 -1 -459 -3 -474 -5z
m490 -306 c6 -6 -28 -103 -174 -506 -63 -173 -135 -372 -158 -442 -24 -70
-121 -338 -214 -596 -94 -258 -171 -476 -171 -485 0 -9 10 -23 22 -31 20 -14
101 -16 680 -16 362 0 658 -3 658 -6 0 -3 -11 -33 -24 -67 -13 -34 -31 -82
-40 -107 l-17 -45 -830 1 c-457 1 -832 4 -834 6 -6 5 60 193 224 643 73 198
157 430 188 515 30 85 59 164 64 175 8 19 38 102 189 520 40 110 76 209 81
220 5 11 25 65 44 119 20 55 39 104 42 109 6 10 260 3 270 -7z"/>
</g>
</svg>
