<?xml version="1.0" standalone="no"?>
<!DOCTYPE svg PUBLIC "-//W3C//DTD SVG 20010904//EN"
 "http://www.w3.org/TR/2001/REC-SVG-20010904/DTD/svg10.dtd">
<svg version="1.0" xmlns="http://www.w3.org/2000/svg"
 width="247.000000pt" height="247.000000pt" viewBox="0 0 247.000000 247.000000"
 preserveAspectRatio="xMidYMid meet">
<metadata>
Created by potrace 1.14, written by Peter Selinger 2001-2017
</metadata>
<g transform="translate(0.000000,247.000000) scale(0.100000,-0.100000)"
fill="#000000" stroke="none">
<path d="M1083 1993 c-14 -36 -189 -509 -324 -883 -33 -91 -71 -194 -85 -228
-14 -35 -23 -70 -20 -78 5 -12 80 -13 508 -8 277 4 506 9 510 13 14 13 116
313 111 327 -4 12 -53 14 -289 14 -156 0 -284 2 -284 5 0 7 104 302 215 609
47 131 84 245 81 252 -4 11 -47 14 -206 14 l-201 0 -16 -37z m190 -220 c-25
-71 -65 -184 -90 -253 -24 -69 -73 -205 -109 -302 -36 -98 -62 -182 -59 -188
4 -6 109 -10 286 -10 153 0 279 -3 279 -6 0 -4 -5 -24 -12 -45 l-11 -39 -353
0 -354 0 30 83 c17 45 96 263 177 485 l146 402 58 0 58 0 -46 -127z"/>
<path d="M1602 1908 c-27 -27 -13 -55 51 -101 143 -102 241 -245 273 -398 18
-89 16 -163 -7 -249 -19 -69 -14 -94 21 -105 60 -19 94 70 94 245 0 100 -3
125 -27 195 -52 149 -143 272 -270 367 -78 58 -112 69 -135 46z"/>
<path d="M785 1869 c-71 -45 -180 -153 -230 -229 -97 -146 -146 -339 -125
-488 13 -96 26 -122 61 -122 43 0 59 22 48 67 -11 47 -13 166 -3 229 9 60 61
195 98 253 39 61 108 133 189 198 70 56 80 78 49 106 -25 23 -30 22 -87 -14z"/>
<path d="M1380 679 c-80 -22 -194 -24 -278 -4 -72 17 -102 9 -102 -29 0 -32
26 -51 90 -66 142 -34 392 -2 413 53 8 22 -16 62 -38 63 -11 1 -49 -7 -85 -17z"/>
<path d="M1077 404 c-4 -4 -7 -13 -7 -21 0 -11 33 -13 178 -11 149 3 177 5
177 18 0 13 -27 15 -171 18 -93 1 -173 -1 -177 -4z"/>
</g>
</svg>
